# File created by Blade
# Date/Time:  Tue Jan 27 19:38:24 2015
#---------------------------------------------------------
:version 1.10
:name HOM
:units
  mass 1.0
  length 1.000000
  angle deg
:documentation
     Acclaim Skeleton File
:root
   axis xyz
   order TX TY TZ RX RY RZ
   position 0.000000 0.000000 0.000000
   orientation 0 0 0
:bonedata
   begin
      id 1
      name Spine_dum
      direction 0.000000 1.000000 0.000000
      length 6.116652
      axis 0.0 0.0 0.0 xyz
   end
   begin
      id 2
      name LeftUpLeg_dum
      direction 1.000000 0.000000 0.000000
      length 4.711765
      axis 0.0 0.0 0.0 xyz
   end
   begin
      id 3
      name RightUpLeg_dum
      direction -1.000000 0.000000 0.000000
      length 4.711765
      axis 0.0 0.0 0.0 xyz
   end
   begin
      id 4
      name Spine
      direction 0.000000 1.000000 0.000000
      length 0.000000
      axis 0.0 0.0 0.0 xyz
      dof rx ry rz
   end
   begin
      id 5
      name Spine_dum1
      direction 0.000000 1.000000 0.000000
      length 15.225563
      axis 0.0 0.0 0.0 xyz
   end
   begin
      id 6
      name Spine_dum2
      direction 0.000000 1.000000 0.000000
      length 8.977654
      axis 0.0 0.0 0.0 xyz
   end
   begin
      id 7
      name Spine_dum3
      direction 0.000000 1.000000 0.000000
      length 8.977654
      axis 0.0 0.0 0.0 xyz
   end
   begin
      id 8
      name Head
      direction 0.000000 1.000000 0.000000
      length 4.527550
      axis 0.0 0.0 0.0 xyz
      dof rx ry rz
   end
   begin
      id 9
      name LeftShoulder
      direction 1.000000 0.000000 0.000000
      length 7.110130
      axis 0.0 0.0 -90.0 xyz
      dof rx ry rz
   end
   begin
      id 10
      name LeftArm
      direction 1.000000 0.000000 0.000000
      length 10.398341
      axis 0.0 0.0 -90.0 xyz
      dof rx ry rz
   end
   begin
      id 11
      name LeftForeArm
      direction 1.000000 0.000000 0.000000
      length 8.888997
      axis 0.0 0.0 -90.0 xyz
      dof ry rz rx
   end
   begin
      id 12
      name LeftHand
      direction 0.000000 0.000000 0.000000
      length 0.000000
      axis 0.0 0.0 -90.0 xyz
      dof rx ry rz
   end
   begin
      id 13
      name LeftHand_dum1
      direction 0.000000 0.000000 0.000000
      length 0.000000
      axis 0.0 0.0 -90.0 xyz
   end
   begin
      id 14
      name LeftHand_dum2
      direction 1.000000 0.000000 0.000000
      length 3.937000
      axis 0.0 0.0 -90.0 xyz
   end
   begin
      id 15
      name LeftHandThumb1
      direction 0.000000 0.000000 1.000000
      length 3.937000
      axis 0.0 0.0 -90.0 xyz
      dof rx rz ry
   end
   begin
      id 16
      name RightShoulder
      direction -1.000000 0.000000 0.000000
      length 7.110130
      axis 0.0 0.0 90.0 xyz
      dof rx ry rz
   end
   begin
      id 17
      name RightArm
      direction -1.000000 0.000000 0.000000
      length 10.398341
      axis 0.0 0.0 90.0 xyz
      dof rx ry rz
   end
   begin
      id 18
      name RightForeArm
      direction -1.000000 0.000000 0.000000
      length 8.888997
      axis 0.0 0.0 90.0 xyz
      dof ry rz rx
   end
   begin
      id 19
      name RightHand
      direction 0.000000 0.000000 0.000000
      length 0.000000
      axis 0.0 0.0 90.0 xyz
      dof rx ry rz
   end
   begin
      id 20
      name RightHand_dum1
      direction 0.000000 0.000000 0.000000
      length 0.000000
      axis 0.0 0.0 90.0 xyz
   end
   begin
      id 21
      name RightHand_dum2
      direction -1.000000 0.000000 0.000000
      length 3.937000
      axis 0.0 0.0 90.0 xyz
   end
   begin
      id 22
      name RightHandThumb1
      direction 0.000000 0.000000 1.000000
      length 3.937000
      axis 0.0 0.0 90.0 xyz
      dof rx rz ry
   end
   begin
      id 23
      name LeftUpLeg
      direction 0.000000 -1.000000 0.000000
      length 15.510451
      axis 0.0 0.0 0.0 xyz
      dof rx ry rz
   end
   begin
      id 24
      name LeftLeg
      direction 0.000000 -1.000000 0.000000
      length 14.858061
      axis 0.0 0.0 0.0 xyz
      dof rx ry rz
   end
   begin
      id 25
      name LeftFoot
      direction 0.000000 -0.258819 0.965926
      length 5.128852
      axis 15.0 0.0 0.0 xyz
      dof rx ry rz
   end
   begin
      id 26
      name LeftToeBase
      direction 0.000000 0.000000 1.000000
      length 2.952750
      axis 0.0 0.0 0.0 xyz
      dof rx ry rz
   end
   begin
      id 27
      name RightUpLeg
      direction 0.000000 -1.000000 0.000000
      length 15.510451
      axis 0.0 0.0 0.0 xyz
      dof rx ry rz
   end
   begin
      id 28
      name RightLeg
      direction 0.000000 -1.000000 0.000000
      length 14.858061
      axis 0.0 0.0 0.0 xyz
      dof rx ry rz
   end
   begin
      id 29
      name RightFoot
      direction 0.000000 -0.258819 0.965926
      length 5.128852
      axis 15.0 0.0 0.0 xyz
      dof rx ry rz
   end
   begin
      id 30
      name RightToeBase
      direction 0.000000 0.000000 1.000000
      length 2.952750
      axis 0.0 0.0 0.0 xyz
      dof rx ry rz
   end
:hierarchy
   begin
      root Spine_dum LeftUpLeg_dum RightUpLeg_dum
      Spine_dum Spine
      LeftUpLeg_dum LeftUpLeg
      RightUpLeg_dum RightUpLeg
      Spine Spine_dum1 Spine_dum2 Spine_dum3
      Spine_dum1 Head
      Spine_dum2 LeftShoulder
      Spine_dum3 RightShoulder
      LeftShoulder LeftArm
      LeftArm LeftForeArm
      LeftForeArm LeftHand
      LeftHand LeftHand_dum1 LeftHand_dum2
      LeftHand_dum1 LeftHandThumb1
      RightShoulder RightArm
      RightArm RightForeArm
      RightForeArm RightHand
      RightHand RightHand_dum1 RightHand_dum2
      RightHand_dum1 RightHandThumb1
      LeftUpLeg LeftLeg
      LeftLeg LeftFoot
      LeftFoot LeftToeBase
      RightUpLeg RightLeg
      RightLeg RightFoot
      RightFoot RightToeBase
   end

# File created by Blade
# Date/Time:  Tue Jan 27 19:38:14 2015
# Frame Rate: 120.000 fps
#------------------------------------------------------
:FULLY-SPECIFIED
:DEGREES
289
root 4.368280 32.262919 1.926511 -5.345703 8.507866 1.061849
Spine 6.718699 25.835266 2.551097
Head 5.818115 -8.396958 2.891412
LeftShoulder -3.160705 -10.198160 26.950009
LeftArm -1.904106 53.243940 -102.184329
LeftForeArm 4.784182 -0.000000 15.675047
LeftHand 10.264362 -0.000000 -9.098944
LeftHandThumb1 -26.253704 0.000000 33.147579
RightShoulder 3.251461 7.351905 -22.802238
RightArm 63.039963 -57.484249 66.023930
RightForeArm 4.359283 -0.000000 90.977991
RightHand 28.740595 -0.000000 -2.396351
RightHandThumb1 -24.326973 -0.000000 -32.862282
LeftUpLeg 7.405917 -7.966609 -4.030414
LeftLeg 4.880977 -0.000000 -0.000000
LeftFoot -16.242377 10.615124 -20.910914
LeftToeBase 16.866863 -0.000000 -0.000000
RightUpLeg 10.148317 -13.119163 1.701502
RightLeg 1.143043 -0.000000 -0.000000
RightFoot -13.800002 -15.351420 12.712848
RightToeBase 9.246333 -0.000000 -0.000000
290
root 4.369798 32.262533 1.923991 -5.351722 8.551895 1.066956
Spine 6.731371 25.815597 2.566738
Head 5.869199 -8.458947 2.831435
LeftShoulder -3.180774 -10.143266 26.940957
LeftArm -1.876233 53.173399 -102.104360
LeftForeArm 4.828820 -0.000000 15.640460
LeftHand 10.272881 -0.000000 -9.027737
LeftHandThumb1 -26.253704 0.000000 33.147579
RightShoulder 3.284487 7.341846 -22.814449
RightArm 63.048919 -57.500710 66.000001
RightForeArm 4.332299 -0.000000 90.880353
RightHand 28.422138 -0.000000 -2.371042
RightHandThumb1 -24.326973 -0.000000 -32.862282
LeftUpLeg 7.404469 -7.978914 -4.037287
LeftLeg 4.877145 -0.000000 -0.000000
LeftFoot -16.225990 10.593076 -20.923501
LeftToeBase 16.924212 -0.000000 -0.000000
RightUpLeg 10.149971 -13.095917 1.698585
RightLeg 1.162279 -0.000000 -0.000000
RightFoot -13.909723 -15.362621 12.864151
RightToeBase 9.482863 -0.000000 -0.000000
291
root 4.372301 32.261842 1.921370 -5.357879 8.589939 1.079561
Spine 6.752033 25.821869 2.578471
Head 5.891441 -8.539692 2.779907
LeftShoulder -3.201117 -10.087619 26.918373
LeftArm -1.845352 53.138277 -102.002349
LeftForeArm 4.844076 -0.000000 15.641954
LeftHand 10.205499 -0.000000 -8.690794
LeftHandThumb1 -26.253704 0.000000 33.147579
RightShoulder 3.289498 7.322502 -22.825454
RightArm 63.048134 -57.534062 65.969023
RightForeArm 4.362600 -0.000000 90.789109
RightHand 28.308073 -0.000000 -2.374099
RightHandThumb1 -24.326973 -0.000000 -32.862282
LeftUpLeg 7.396118 -8.022119 -4.059763
LeftLeg 4.908179 -0.000000 -0.000000
LeftFoot -16.245111 10.580449 -20.929439
LeftToeBase 16.967355 -0.000000 -0.000000
RightUpLeg 10.147967 -13.102946 1.682582
RightLeg 1.176130 -0.000000 -0.000000
RightFoot -13.880152 -15.422350 12.783935
RightToeBase 9.256717 -0.000000 -0.000000
292
root 4.374085 32.261278 1.917975 -5.356998 8.631316 1.086604
Spine 6.766306 25.820520 2.588178
Head 5.894407 -8.643988 2.742532
LeftShoulder -3.227466 -9.955216 26.887588
LeftArm -1.675833 53.067405 -101.802283
LeftForeArm 4.949827 -0.000000 15.622761
LeftHand 10.266541 -0.000000 -8.666060
LeftHandThumb1 -26.253704 0.000000 33.147579
RightShoulder 3.295757 7.296011 -22.864731
RightArm 63.134647 -57.579987 65.835496
RightForeArm 4.330056 0.000000 90.724977
RightHand 28.026840 -0.000000 -2.643331
RightHandThumb1 -24.326973 -0.000000 -32.862282
LeftUpLeg 7.377837 -8.046818 -4.067488
LeftLeg 4.913313 -0.000000 -0.000000
LeftFoot -16.219210 10.574095 -20.930117
LeftToeBase 16.966261 -0.000000 -0.000000
RightUpLeg 10.133913 -13.095353 1.677365
RightLeg 1.212653 -0.000000 -0.000000
RightFoot -13.978056 -15.428486 12.880334
RightToeBase 9.494049 -0.000000 -0.000000
293
root 4.376956 32.260493 1.914830 -5.352770 8.667803 1.100510
Spine 6.788147 25.821527 2.593475
Head 5.873500 -8.749023 2.715615
LeftShoulder -3.283535 -9.993146 26.866003
LeftArm -1.779698 53.072589 -101.819534
LeftForeArm 4.900509 0.000000 15.623185
LeftHand 10.315055 -0.000000 -8.670239
LeftHandThumb1 -26.253704 0.000000 33.147579
RightShoulder 3.284602 7.285633 -22.891155
RightArm 63.347459 -57.620589 65.586650
RightForeArm 4.519845 -0.000000 90.536000
RightHand 28.205927 -0.000000 -2.661047
RightHandThumb1 -24.326973 -0.000000 -32.862282
LeftUpLeg 7.365472 -8.074120 -4.083679
LeftLeg 4.909505 -0.000000 -0.000000
LeftFoot -16.205204 10.566285 -20.892384
LeftToeBase 16.973460 -0.000000 -0.000000
RightUpLeg 10.125546 -13.102672 1.663256
RightLeg 1.214654 -0.000000 -0.000000
RightFoot -13.937947 -15.492871 12.796589
RightToeBase 9.294929 -0.000000 -0.000000
294
root 4.379822 32.259819 1.911402 -5.353934 8.703888 1.110490
Spine 6.803409 25.846437 2.598415
Head 5.863977 -8.890404 2.705322
LeftShoulder -3.290041 -9.936829 26.840831
LeftArm -1.713051 52.981230 -101.719016
LeftForeArm 5.026070 -0.000000 15.576575
LeftHand 10.278364 -0.000000 -8.055099
LeftHandThumb1 -26.253704 0.000000 33.147579
RightShoulder 3.259554 7.233977 -22.915194
RightArm 63.551554 -57.636623 65.349359
RightForeArm 4.653954 0.000000 90.425210
RightHand 28.168345 -0.000000 -2.598149
RightHandThumb1 -24.326973 -0.000000 -32.862282
LeftUpLeg 7.357690 -8.126015 -4.107495
LeftLeg 4.921800 -0.000000 -0.000000
LeftFoot -16.211104 10.575191 -20.943157
LeftToeBase 16.898250 -0.000000 -0.000000
RightUpLeg 10.115265 -13.094406 1.651283
RightLeg 1.247403 -0.000000 -0.000000
RightFoot -14.038874 -15.487187 12.908800
RightToeBase 9.488707 -0.000000 -0.000000
295
root 4.381349 32.259256 1.908503 -5.351497 8.744683 1.118067
Spine 6.801935 25.883357 2.585030
Head 5.848750 -9.026262 2.726608
LeftShoulder -3.272847 -9.904971 26.822823
LeftArm -1.702016 52.872830 -101.641856
LeftForeArm 4.938866 0.000000 15.597798
LeftHand 10.288308 -0.000000 -8.528361
LeftHandThumb1 -26.253704 0.000000 33.147579
RightShoulder 3.220909 7.222719 -22.922016
RightArm 63.657887 -57.668951 65.201640
RightForeArm 4.740604 -0.000000 90.342414
RightHand 28.330563 -0.000000 -2.522237
RightHandThumb1 -24.326973 -0.000000 -32.862282
LeftUpLeg 7.354664 -8.142118 -4.116152
LeftLeg 4.918334 -0.000000 -0.000000
LeftFoot -16.212392 10.524645 -20.969156
LeftToeBase 16.974774 -0.000000 -0.000000
RightUpLeg 10.112105 -13.085118 1.646935
RightLeg 1.252338 -0.000000 -0.000000
RightFoot -14.065754 -15.536172 12.896500
RightToeBase 9.539087 -0.000000 -0.000000
296
root 4.382923 32.258780 1.904861 -5.345068 8.777005 1.126026
Spine 6.806945 25.904470 2.580690
Head 5.837899 -9.160948 2.738378
LeftShoulder -3.303614 -9.834953 26.802035
LeftArm -1.619217 52.791358 -101.537430
LeftForeArm 4.966035 0.000000 15.579477
LeftHand 10.246642 -0.000000 -8.710181
LeftHandThumb1 -26.253704 0.000000 33.147579
RightShoulder 3.180214 7.183490 -22.963120
RightArm 63.809032 -57.683093 65.053868
RightForeArm 4.761962 0.000000 90.260399
RightHand 28.319936 -0.000000 -2.348410
RightHandThumb1 -24.326973 -0.000000 -32.862282
LeftUpLeg 7.339449 -8.165664 -4.123006
LeftLeg 4.909206 -0.000000 -0.000000
LeftFoot -16.182860 10.517209 -20.967595
LeftToeBase 16.925256 -0.000000 -0.000000
RightUpLeg 10.091937 -13.074626 1.645923
RightLeg 1.276154 -0.000000 -0.000000
RightFoot -14.093927 -15.586877 12.897182
RightToeBase 9.492023 -0.000000 -0.000000
297
root 4.385458 32.259058 1.903072 -5.325010 8.808056 1.130407
Spine 6.775545 25.885348 2.562428
Head 5.840265 -9.240506 2.743553
LeftShoulder -3.347894 -9.764903 26.778335
LeftArm -1.623231 52.650929 -101.487583
LeftForeArm 5.055478 0.000000 15.579939
LeftHand 10.199059 0.000000 -8.335230
LeftHandThumb1 -26.253704 0.000000 33.147579
RightShoulder 3.198712 7.193964 -22.963914
RightArm 63.825724 -57.718102 65.017079
RightForeArm 4.711612 -0.000000 90.204752
RightHand 28.423142 0.000000 -2.158993
RightHandThumb1 -24.326973 -0.000000 -32.862282
LeftUpLeg 7.317520 -8.152635 -4.127967
LeftLeg 4.905048 -0.000000 -0.000000
LeftFoot -16.083254 10.530566 -20.764345
LeftToeBase 16.733779 -0.000000 -0.000000
RightUpLeg 10.067725 -13.074415 1.646100
RightLeg 1.283798 -0.000000 -0.000000
RightFoot -14.120286 -15.617997 12.929257
RightToeBase 9.541404 -0.000000 -0.000000
298
root 4.385685 32.259175 1.900991 -5.316203 8.839206 1.138377
Spine 6.758058 25.896943 2.532579
Head 5.840137 -9.341673 2.780010
LeftShoulder -3.363389 -9.740716 26.774134
LeftArm -1.639615 52.513689 -101.470291
LeftForeArm 5.016776 0.000000 15.535405
LeftHand 10.231617 -0.000000 -8.441916
LeftHandThumb1 -26.253704 0.000000 33.147579
RightShoulder 3.196737 7.188706 -22.957627
RightArm 63.822415 -57.725999 65.004906
RightForeArm 4.669766 0.000000 90.173896
RightHand 28.613397 0.000000 -1.989250
RightHandThumb1 -24.326973 -0.000000 -32.862282
LeftUpLeg 7.315951 -8.178957 -4.129994
LeftLeg 4.871938 -0.000000 -0.000000
LeftFoot -16.133762 10.476042 -20.919354
LeftToeBase 17.009912 -0.000000 -0.000000
RightUpLeg 10.057642 -13.116222 1.637899
RightLeg 1.278195 -0.000000 -0.000000
RightFoot -14.042307 -15.669149 12.787721
RightToeBase 9.257514 -0.000000 -0.000000
299
root 4.386547 32.259386 1.898491 -5.311536 8.880270 1.139059
Spine 6.746434 25.891716 2.519259
Head 5.839879 -9.456101 2.801141
LeftShoulder -3.375313 -9.727188 26.760812
LeftArm -1.669628 52.365772 -101.472409
LeftForeArm 4.962979 0.000000 15.484117
LeftHand 10.340485 -0.000000 -8.700802
LeftHandThumb1 -26.253704 0.000000 33.147579
RightShoulder 3.209256 7.185955 -22.960476
RightArm 63.775724 -57.725391 65.030649
RightForeArm 4.614029 -0.000000 90.190974
RightHand 28.332725 -0.000000 -1.827682
RightHandThumb1 -24.326973 -0.000000 -32.862282
LeftUpLeg 7.307386 -8.192350 -4.136317
LeftLeg 4.870557 -0.000000 -0.000000
LeftFoot -16.039252 10.518646 -20.739241
LeftToeBase 16.586849 -0.000000 -0.000000
RightUpLeg 10.052539 -13.120964 1.638118
RightLeg 1.290763 -0.000000 -0.000000
RightFoot -14.126572 -15.650907 12.911154
RightToeBase 9.511126 -0.000000 -0.000000
